<?xml version="1.0" encoding="utf-8"?>
<!-- Generator: Adobe Illustrator 18.1.0, SVG Export Plug-In . SVG Version: 6.00 Build 0)  -->
<svg version="1.1" id="Слой_1" xmlns:sketch="http://www.bohemiancoding.com/sketch/ns"
	 xmlns="http://www.w3.org/2000/svg" xmlns:xlink="http://www.w3.org/1999/xlink" x="0px" y="0px" width="798.1px" height="216.9px"
	 viewBox="20.5 187.5 798.1 216.9" enable-background="new 20.5 187.5 798.1 216.9" xml:space="preserve">
<path id="Fill-1" d="M465,289.9h2.6c3.2,0,7.8-0.6,11-3.2c1.9-1.9,3.9-5.2,5.2-8.4l2.6-6.5c1.3-2.6,2.6-6.5,5.2-9.1
	c3.9-3.9,8.4-3.9,12.3-3.9l0,0l0.6,7.8c-1.9,0-4.5,0.6-5.8,1.9c-1.3,1.3-1.9,3.2-3.2,6.5l-3.2,7.1c-1.3,2.6-2.6,5.8-4.5,7.1
	c-1.9,1.9-4.5,3.2-7.8,3.9v0.6c3.9,0.6,7.1,2.6,9.1,4.5c2.6,2.6,3.9,5.8,5.2,8.4l4.5,10.4c1.3,3.9,2.6,5.8,3.9,7.1
	c1.9,1.3,3.9,1.9,5.2,1.9l0,0l-0.6,8.4c-3.9,0.6-8.4,0-12.3-3.2c-2.6-1.9-3.9-5.8-5.2-9.7l-5.2-11c-2.6-6.5-5.2-8.4-5.8-9.1
	c-3.2-2.6-6.5-3.2-9.7-3.2h-4.5v34.3h-9.7v-72.5h9.7v29.8H465z"/>
<path id="Fill-3" d="M548.5,309.3c-0.6,0-8.4,0-12.3,1.3c-2.6,0.6-5.8,1.9-7.8,3.2c-1.3,1.3-2.6,2.6-2.6,5.2c0,2.6,1.3,4.5,1.9,5.2
	c1.9,1.9,4.5,1.9,6.5,1.9c1.9,0,3.9,0,5.8-1.3c2.6-1.3,5.8-3.9,7.8-6.5L548.5,309.3L548.5,309.3z M520,288.6
	c6.5-4.5,13-5.8,18.8-5.8c7.8,0,11.7,1.9,14.2,4.5c3.9,3.9,3.9,9.7,3.9,13.6v16.8c0,2.6,0,5.8,1.3,7.1c0.6,0.6,2.6,1.3,3.9,1.3
	l-1.3,7.1c-3.2,0.6-6.5,0-8.4-1.3c-1.3-1.3-2.6-3.2-3.2-5.2c-1.3,1.9-3.9,3.9-6.5,4.5c-2.6,1.3-5.8,1.9-10.4,1.9
	c-3.9,0-8.4-0.6-11.7-3.9c-1.9-1.9-4.5-5.8-4.5-10.4s1.9-8.4,4.5-10.4c3.9-3.9,10.4-5.2,13.6-5.8c4.5-0.6,9.7-0.6,13.6-0.6v-0.6
	c0-2.6,0-6.5-2.6-8.4c-1.9-1.9-5.2-1.9-7.1-1.9c-3.2,0-5.2,0.6-7.8,1.3c-1.9,0.6-4.5,1.3-6.5,2.6L520,288.6z"/>
<path id="Fill-5" d="M612.6,326.1c-5.8,7.1-13.6,7.8-18.1,7.8c-5.8,0-12.3-0.6-18.1-6.5c-3.2-3.2-6.5-9.1-6.5-18.8
	c0-5.2,1.3-13,7.1-18.8c5.2-5.2,11-7.1,17.5-7.1c5.8,0,11.7,1.3,17.5,5.8l-5.2,5.8c-5.2-3.9-9.7-4.5-12.3-4.5
	c-4.5,0-7.8,1.9-9.7,3.9c-3.9,3.9-5.2,9.7-5.2,14.9c0,6.5,2.6,11,4.5,13.6c2.6,2.6,5.8,3.9,9.7,3.9c2.6,0,7.8-0.6,12.3-5.2
	L612.6,326.1z"/>
<path id="Fill-7" d="M663.2,326.1c-5.8,7.1-13.6,7.8-18.1,7.8c-5.8,0-12.3-0.6-18.1-6.5c-3.2-3.2-6.5-9.1-6.5-18.8
	c0-5.2,1.3-13,7.1-18.8c5.2-5.2,11-7.1,17.5-7.1c5.8,0,11.7,1.3,17.5,5.8l-5.2,5.8c-5.2-3.9-9.7-4.5-12.3-4.5
	c-4.5,0-7.8,1.9-9.7,3.9c-3.9,3.9-5.2,9.7-5.2,14.9c0,6.5,2.6,11,4.5,13.6c2.6,2.6,5.8,3.9,9.7,3.9c2.6,0,7.8-0.6,12.3-5.2
	L663.2,326.1z"/>
<path id="Fill-9" d="M703.9,309.3c-0.6,0-8.4,0-12.3,1.3c-2.6,0.6-5.8,1.9-7.8,3.2c-1.3,1.3-2.6,2.6-2.6,5.2c0,2.6,1.3,4.5,1.9,5.2
	c1.9,1.9,4.5,1.9,6.5,1.9s3.9,0,5.8-1.3c2.6-1.3,5.8-3.9,7.8-6.5L703.9,309.3L703.9,309.3z M675.5,288.6c6.5-4.5,13-5.8,18.8-5.8
	c7.8,0,11.7,1.9,14.2,4.5c3.9,3.9,3.9,9.7,3.9,13.6v16.8c0,2.6,0,5.8,1.3,7.1c0.6,0.6,2.6,1.3,3.9,1.3l-1.3,7.1
	c-3.2,0.6-6.5,0-8.4-1.3c-1.3-1.3-2.6-3.2-3.2-5.2c-1.3,1.9-3.9,3.9-6.5,4.5c-2.6,1.3-5.8,1.9-10.4,1.9c-3.9,0-8.4-0.6-11.7-3.9
	c-1.9-1.9-4.5-5.8-4.5-10.4c0-4.5,1.9-8.4,4.5-10.4c3.9-3.9,10.4-5.2,13.6-5.8c4.5-0.6,9.7-0.6,13.6-0.6v-0.6c0-2.6,0-6.5-2.6-8.4
	c-1.9-1.9-5.2-1.9-7.1-1.9c-3.2,0-5.2,0.6-7.8,1.3c-1.9,0.6-4.5,1.3-6.5,2.6L675.5,288.6z"/>
<path id="Fill-11" fill="#FE0000" d="M69.9,238.1H53.8c-16.2,0-29.8,12.3-29.8,36.3c0,14.2,6.5,24.6,18.8,30.4l-22,40.2
	c-0.6,1.3,0,2.6,1.3,2.6h10.4c0.6,0,1.3,0,1.9-1.3l20.1-39.5h7.1v39.5c0,0.6,0.6,1.3,1.3,1.3h9.1c0.6,0,1.3-0.6,1.3-1.3V239.4
	C71.9,238.1,71.2,238.1,69.9,238.1L69.9,238.1z M60.9,297h-6.5c-9.7,0-18.8-7.1-18.8-24.6c0-18.1,8.4-25.3,17.5-25.3h7.1L60.9,297
	L60.9,297z"/>
<path id="Fill-13" d="M124.3,273.7h-9.1c-0.6,0-1.3,0.6-1.3,1.3v27.8H97.1V275c0-0.6,0-1.3-1.3-1.3h-9.1c-0.6,0-1.3,0.6-1.3,1.3
	v70.6c0,0.6,0,1.3,1.3,1.3h9.1c0.6,0,1.3-0.6,1.3-1.3v-33.7H114v33.7c0,0.6,0.6,1.3,1.3,1.3h9.1c0.6,0,1.3-0.6,1.3-1.3V275
	C125.6,274.3,125,273.7,124.3,273.7"/>
<path id="Fill-15" d="M329,341.7l-1.3-5.2c0-0.6,0-0.6-0.6-0.6c-0.6,0-4.5,1.3-10.4,1.3c-11,0-16.2-10.4-16.2-27.2
	c0-14.9,4.5-29.1,12.3-29.1c1.9,0,4.5,0.6,8.4,3.9c0.6,0.6,0.6,0.6,1.3,0.6c0.6,0,0.6,0,1.3-1.3l3.9-6.5c0-0.6,0.6-0.6,0.6-1.3
	c0-0.6-0.6-1.3-1.3-1.3c-5.8-3.2-9.7-3.9-13.6-3.9c-13.6,0-24,16.2-24,41.4c0,22,10.4,34.3,24.6,34.3
	C319.9,346.9,326.4,344.3,329,341.7C329,343,329,342.3,329,341.7"/>
<path id="Fill-17" d="M266.2,306.7l17.5-31.7c0-0.6,0-1.3-0.6-1.3h-8.4c-2.6,0-3.2,0.6-3.9,2.6l-13,27.2c-0.6,1.3-1.3,2.6-1.9,3.2
	V275c0-0.6,0-1.3-0.6-1.3h-9.1c-0.6,0-0.6,0.6-0.6,1.3v70.6c0,0.6,0,1.3,0.6,1.3h9.1c0.6,0,0.6-0.6,0.6-1.3v-36.3
	c0.6,0,0.6,0.6,1.3,1.3l16.2,33.7c0.6,1.9,1.9,1.9,3.9,1.9h9.1c0.6,0,0.6-0.6,0.6-1.3L266.2,306.7z"/>
<path id="Fill-19" d="M183.3,337.1h-1.9c-1.9,0-2.6-0.6-2.6-2.6V275c0-0.6,0-1.3-0.6-1.3h-29.1c-0.6,0-1.3,0.6-1.3,1.3v5.2
	c0,17.5-1.3,40.2-10.4,57h-3.2c-0.6,0-1.3,0.6-1.3,1.3v21.4c0,0.6,0.6,1.3,1.3,1.3h7.1c1.3,0,1.9-1.3,1.9-1.9v-12.3h31.1v13
	c0,0.6,0.6,1.3,1.3,1.3h7.1c0.6,0,1.9-0.6,1.9-1.9v-20.1C184.6,337.8,183.9,337.1,183.3,337.1L183.3,337.1z M167.7,337.1H147
	c7.1-12.3,10.4-26.6,11-44c0-3.9,0.6-7.8,0.6-10.4h9.1V337.1z"/>
<path id="Fill-21" d="M213.1,271.7c-15.5,0-22.7,19.4-22.7,41.4c0,22,9.7,35,24,35c7.1,0,13.6-2.6,16.2-4.5c0.6,0,0.6-0.6,0.6-1.3
	l-1.3-5.2c0-0.6-0.6-0.6-1.3-0.6c-0.6,0-4.5,1.3-10.4,1.3c-11,0-16.2-9.7-16.2-22.7v-3.2c0,0,5.8,0.6,9.1,0.6h21.4v-5.8
	C232.5,284,224.1,271.7,213.1,271.7L213.1,271.7z M211.1,303.5c-3.2,0-8.4,0.6-8.4,0.6s0-1.9,0-4.5c1.3-12.3,4.5-18.8,9.1-18.8
	c4.5,0,7.8,6.5,8.4,17.5c0,2.6,0,5.2,0,5.2H211.1z"/>
<path id="Fill-23" fill="#FFCC00" d="M755.8,187.5h-375v216.9h375l62.8-108.2L755.8,187.5z M742.8,206.3l52.5,90l-52.5,90H400.9
	v-180H742.8z"/>
</svg>
